<mxfile host="app.diagrams.net" modified="2024-05-17T08:22:48.164Z" agent="Mozilla/5.0 (Windows NT 10.0; Win64; x64) AppleWebKit/537.36 (KHTML, like Gecko) Chrome/124.0.0.0 Safari/537.36" etag="aBAbpwOkyK4CiRMXSu3p" version="24.4.3" type="github">
  <diagram id="C5RBs43oDa-KdzZeNtuy" name="Page-1">
    <mxGraphModel dx="819" dy="422" grid="1" gridSize="10" guides="1" tooltips="1" connect="1" arrows="1" fold="1" page="1" pageScale="1" pageWidth="827" pageHeight="1169" math="0" shadow="0">
      <root>
        <mxCell id="WIyWlLk6GJQsqaUBKTNV-0" />
        <mxCell id="WIyWlLk6GJQsqaUBKTNV-1" parent="WIyWlLk6GJQsqaUBKTNV-0" />
        <mxCell id="Pw0hEaCwRAZkLy2Prb98-2" style="edgeStyle=orthogonalEdgeStyle;rounded=0;orthogonalLoop=1;jettySize=auto;html=1;entryX=0;entryY=0.5;entryDx=0;entryDy=0;" edge="1" parent="WIyWlLk6GJQsqaUBKTNV-1" source="Pw0hEaCwRAZkLy2Prb98-0" target="Pw0hEaCwRAZkLy2Prb98-1">
          <mxGeometry relative="1" as="geometry" />
        </mxCell>
        <mxCell id="Pw0hEaCwRAZkLy2Prb98-0" value="START" style="ellipse;whiteSpace=wrap;html=1;aspect=fixed;" vertex="1" parent="WIyWlLk6GJQsqaUBKTNV-1">
          <mxGeometry x="40" y="40" width="80" height="80" as="geometry" />
        </mxCell>
        <mxCell id="Pw0hEaCwRAZkLy2Prb98-3" style="edgeStyle=orthogonalEdgeStyle;rounded=0;orthogonalLoop=1;jettySize=auto;html=1;entryX=0;entryY=0.5;entryDx=0;entryDy=0;" edge="1" parent="WIyWlLk6GJQsqaUBKTNV-1" source="Pw0hEaCwRAZkLy2Prb98-1" target="Pw0hEaCwRAZkLy2Prb98-4">
          <mxGeometry relative="1" as="geometry">
            <mxPoint x="360" y="80" as="targetPoint" />
          </mxGeometry>
        </mxCell>
        <mxCell id="Pw0hEaCwRAZkLy2Prb98-6" value="Gembok = 1&lt;div&gt;Kunci = 2&lt;/div&gt;" style="edgeLabel;html=1;align=center;verticalAlign=middle;resizable=0;points=[];" vertex="1" connectable="0" parent="Pw0hEaCwRAZkLy2Prb98-3">
          <mxGeometry x="-0.0607" y="3" relative="1" as="geometry">
            <mxPoint as="offset" />
          </mxGeometry>
        </mxCell>
        <mxCell id="Pw0hEaCwRAZkLy2Prb98-8" style="edgeStyle=orthogonalEdgeStyle;rounded=0;orthogonalLoop=1;jettySize=auto;html=1;entryX=0;entryY=0.5;entryDx=0;entryDy=0;exitX=1;exitY=1;exitDx=0;exitDy=0;" edge="1" parent="WIyWlLk6GJQsqaUBKTNV-1" source="Pw0hEaCwRAZkLy2Prb98-1" target="Pw0hEaCwRAZkLy2Prb98-7">
          <mxGeometry relative="1" as="geometry">
            <Array as="points">
              <mxPoint x="300" y="108" />
              <mxPoint x="300" y="170" />
            </Array>
          </mxGeometry>
        </mxCell>
        <mxCell id="Pw0hEaCwRAZkLy2Prb98-9" value="Kunci = 3" style="edgeLabel;html=1;align=center;verticalAlign=middle;resizable=0;points=[];" vertex="1" connectable="0" parent="Pw0hEaCwRAZkLy2Prb98-8">
          <mxGeometry x="-0.2758" y="1" relative="1" as="geometry">
            <mxPoint as="offset" />
          </mxGeometry>
        </mxCell>
        <mxCell id="Pw0hEaCwRAZkLy2Prb98-1" value="Syarat belum&lt;br&gt;Terpenuhi" style="ellipse;whiteSpace=wrap;html=1;aspect=fixed;" vertex="1" parent="WIyWlLk6GJQsqaUBKTNV-1">
          <mxGeometry x="200" y="40" width="80" height="80" as="geometry" />
        </mxCell>
        <mxCell id="Pw0hEaCwRAZkLy2Prb98-11" style="edgeStyle=orthogonalEdgeStyle;rounded=0;orthogonalLoop=1;jettySize=auto;html=1;entryX=0;entryY=0.5;entryDx=0;entryDy=0;" edge="1" parent="WIyWlLk6GJQsqaUBKTNV-1" source="Pw0hEaCwRAZkLy2Prb98-4" target="Pw0hEaCwRAZkLy2Prb98-10">
          <mxGeometry relative="1" as="geometry" />
        </mxCell>
        <mxCell id="Pw0hEaCwRAZkLy2Prb98-13" value="FSM_Gembok&lt;div&gt;= unlocked &lt;br&gt;&amp;amp;&amp;amp;&lt;br&gt;FSM_Ghost&lt;br&gt;&amp;lt; 5&lt;/div&gt;" style="edgeLabel;html=1;align=center;verticalAlign=middle;resizable=0;points=[];" vertex="1" connectable="0" parent="Pw0hEaCwRAZkLy2Prb98-11">
          <mxGeometry x="-0.1397" relative="1" as="geometry">
            <mxPoint x="11" as="offset" />
          </mxGeometry>
        </mxCell>
        <mxCell id="Pw0hEaCwRAZkLy2Prb98-14" style="edgeStyle=orthogonalEdgeStyle;rounded=0;orthogonalLoop=1;jettySize=auto;html=1;entryX=0;entryY=0.5;entryDx=0;entryDy=0;" edge="1" parent="WIyWlLk6GJQsqaUBKTNV-1" source="Pw0hEaCwRAZkLy2Prb98-4" target="Pw0hEaCwRAZkLy2Prb98-10">
          <mxGeometry relative="1" as="geometry" />
        </mxCell>
        <mxCell id="Pw0hEaCwRAZkLy2Prb98-4" value="Syarat Menang&lt;br&gt;Terpenuhi" style="ellipse;whiteSpace=wrap;html=1;aspect=fixed;" vertex="1" parent="WIyWlLk6GJQsqaUBKTNV-1">
          <mxGeometry x="360" y="40" width="80" height="80" as="geometry" />
        </mxCell>
        <mxCell id="Pw0hEaCwRAZkLy2Prb98-12" style="edgeStyle=orthogonalEdgeStyle;rounded=0;orthogonalLoop=1;jettySize=auto;html=1;entryX=0;entryY=0.5;entryDx=0;entryDy=0;" edge="1" parent="WIyWlLk6GJQsqaUBKTNV-1" source="Pw0hEaCwRAZkLy2Prb98-7" target="Pw0hEaCwRAZkLy2Prb98-10">
          <mxGeometry relative="1" as="geometry" />
        </mxCell>
        <mxCell id="Pw0hEaCwRAZkLy2Prb98-7" value="Syarat Alternatif&lt;br&gt;Terpenuhi" style="ellipse;whiteSpace=wrap;html=1;aspect=fixed;" vertex="1" parent="WIyWlLk6GJQsqaUBKTNV-1">
          <mxGeometry x="360" y="130" width="80" height="80" as="geometry" />
        </mxCell>
        <mxCell id="Pw0hEaCwRAZkLy2Prb98-10" value="Menang" style="ellipse;whiteSpace=wrap;html=1;aspect=fixed;" vertex="1" parent="WIyWlLk6GJQsqaUBKTNV-1">
          <mxGeometry x="530" y="40" width="80" height="80" as="geometry" />
        </mxCell>
      </root>
    </mxGraphModel>
  </diagram>
</mxfile>
